<svg id="visual" viewBox="0 0 900 600" width="900" height="600" xmlns="http://www.w3.org/2000/svg" xmlns:xlink="http://www.w3.org/1999/xlink" version="1.1"><rect x="0" y="0" width="900" height="600" fill="#001829"></rect><g fill="#297EA6"><path d="M0 -111.4L25 -34.4L105.9 -34.4L40.5 13.1L65.5 90.1L0 42.5L-65.5 90.1L-40.5 13.1L-105.9 -34.4L-25 -34.4Z" transform="translate(514 500)"></path><path d="M0 -49.1L11 -15.2L46.7 -15.2L17.8 5.8L28.8 39.7L0 18.7L-28.8 39.7L-17.8 5.8L-46.7 -15.2L-11 -15.2Z" transform="translate(747 126)"></path><path d="M0 -71.7L16.1 -22.2L68.2 -22.2L26.1 8.5L42.2 58L0 27.4L-42.2 58L-26.1 8.5L-68.2 -22.2L-16.1 -22.2Z" transform="translate(35 248)"></path><path d="M0 -77.4L17.4 -23.9L73.6 -23.9L28.1 9.1L45.5 62.6L0 29.6L-45.5 62.6L-28.1 9.1L-73.6 -23.9L-17.4 -23.9Z" transform="translate(760 368)"></path></g></svg>